<svg width="1052" height="1052" viewBox="0 0 1052 1052" fill="none" xmlns="http://www.w3.org/2000/svg">
<path d="M605.166 424.703C582.497 424.703 563.28 416.777 547.515 400.926C531.75 385.076 523.867 365.828 523.867 343.183C523.867 320.539 531.802 301.343 547.67 285.595C563.538 269.847 582.806 261.973 605.476 261.973C628.144 261.973 647.361 269.899 663.126 285.75C678.891 301.601 686.774 320.848 686.774 343.493C686.774 366.137 678.84 385.333 662.971 401.081C647.104 416.829 627.835 424.703 605.166 424.703ZM710.267 687.17C687.598 687.17 668.381 679.245 652.616 663.393C636.851 647.543 628.968 628.295 628.968 605.651C628.968 583.007 636.903 563.811 652.771 548.063C668.639 532.315 687.907 524.441 710.577 524.441C733.245 524.441 752.462 532.366 768.227 548.218C783.992 564.068 791.875 583.316 791.875 605.96C791.875 628.604 783.941 647.8 768.072 663.548C752.205 679.296 732.936 687.17 710.267 687.17ZM368.843 737.039C353.954 737.039 341.473 732.009 331.401 721.947C321.329 711.886 316.293 699.419 316.293 684.546C316.293 669.673 321.329 657.205 331.401 647.144C341.473 637.083 353.954 632.052 368.843 632.052C383.733 632.052 396.213 637.083 406.286 647.144C416.358 657.205 421.394 669.673 421.394 684.546C421.394 699.419 416.358 711.886 406.286 721.947C396.213 732.009 383.733 737.039 368.843 737.039ZM526.187 1052C598.211 1052 666.192 1038.22 730.128 1010.66C794.065 983.102 849.899 945.482 897.633 897.8C945.366 850.119 983.027 794.345 1010.62 730.477C1038.21 666.61 1052 598.806 1052 527.065C1052 446.575 1034.92 371.335 1000.76 301.343C966.605 231.352 920.843 172.078 863.475 123.522C806.107 74.9653 739.981 39.9697 665.097 18.5348C590.212 -2.90001 512.481 -5.7434 431.904 10.0046C437.159 49.3747 433.656 86.5576 421.394 121.553C409.132 156.549 390.52 186.295 365.559 210.792C340.597 235.289 310.6 253.224 275.566 264.598C240.533 275.972 203.747 278.596 165.21 272.472C182.727 325.84 173.093 373.741 136.307 416.173C99.522 458.605 54.854 482.008 2.30354 486.383C-4.7032 562.498 4.27418 634.677 29.2357 702.918C54.1972 771.16 90.7636 831.09 138.935 882.709C187.106 934.327 244.384 975.447 310.767 1006.07C377.151 1036.69 448.957 1052 526.187 1052Z" fill="#64748B"/>
</svg>
