<svg width="56" height="56" viewBox="0 0 56 56" fill="none" xmlns="http://www.w3.org/2000/svg">
<path d="M7.18851 43.0927C6.61258 42.6653 6.06208 42.1842 5.54267 41.6513C2.88928 38.9293 1.26598 35.0822 1.02988 30.9558C0.793777 26.8295 1.96423 22.7621 4.28376 19.6484C5.43225 18.1067 6.82827 16.8455 8.39215 15.9369C9.956 15.0283 11.6571 14.49 13.3982 14.3528C13.5789 14.3574 13.7569 14.3013 13.9114 14.191C14.0657 14.0808 14.19 13.9209 14.2695 13.7305C15.4706 9.6454 17.8288 6.16702 20.9509 3.87537C24.073 1.58372 27.7702 0.617324 31.426 1.1373C35.0818 1.65733 38.4752 3.63228 41.0402 6.73286C43.6054 9.83344 45.187 13.8722 45.5217 18.1757C45.5495 18.4023 45.6324 18.6148 45.7597 18.7881C45.8875 18.9614 46.0544 19.0882 46.2413 19.1536C48.9484 19.902 51.3276 21.7892 52.9284 24.4578C54.5292 27.1263 55.2405 30.3911 54.9279 33.6338C54.6149 36.8765 53.2997 39.872 51.2314 42.0533C50.4943 42.8304 49.6798 43.4849 48.8111 44.0065" stroke="black" stroke-linecap="round" stroke-linejoin="round"/>
<path d="M32.6108 32.7573L23.3823 38.1718" stroke="black" stroke-linecap="round" stroke-linejoin="round"/>
<path d="M36.3243 35.4629C38.6231 35.4629 40.4866 33.2761 40.4866 30.5786C40.4866 27.8811 38.6231 25.6943 36.3243 25.6943C34.0256 25.6943 32.162 27.8811 32.162 30.5786C32.162 33.2761 34.0256 35.4629 36.3243 35.4629Z" stroke="black" stroke-linecap="round" stroke-linejoin="round"/>
<path d="M19.6753 45.2314C21.974 45.2314 23.8375 43.0447 23.8375 40.3472C23.8375 37.6497 21.974 35.4629 19.6753 35.4629C17.3765 35.4629 15.513 37.6497 15.513 40.3472C15.513 43.0447 17.3765 45.2314 19.6753 45.2314Z" stroke="black" stroke-linecap="round" stroke-linejoin="round"/>
<path d="M36.3243 55C38.6231 55 40.4866 52.8132 40.4866 50.1157C40.4866 47.4182 38.6231 45.2314 36.3243 45.2314C34.0256 45.2314 32.162 47.4182 32.162 50.1157C32.162 52.8132 34.0256 55 36.3243 55Z" stroke="black" stroke-linecap="round" stroke-linejoin="round"/>
<path d="M23.3823 42.5222L32.6108 47.9369" stroke="black" stroke-linecap="round" stroke-linejoin="round"/>
</svg>
