<svg width="54" height="54" viewBox="0 0 54 54" fill="none" xmlns="http://www.w3.org/2000/svg">
<path d="M32.7857 1.92859H21.2143C19.0841 1.92859 17.3571 3.65549 17.3571 5.78573V7.7143C17.3571 9.84453 19.0841 11.5714 21.2143 11.5714H32.7857C34.9159 11.5714 36.6429 9.84453 36.6429 7.7143V5.78573C36.6429 3.65549 34.9159 1.92859 32.7857 1.92859Z" stroke="black" stroke-linecap="round" stroke-linejoin="round"/>
<path d="M37.6071 5.78571H43.3929C44.4158 5.78571 45.397 6.19209 46.1202 6.91542C46.8435 7.63879 47.25 8.61986 47.25 9.64285V48.2143C47.25 49.2372 46.8435 50.2184 46.1202 50.9417C45.397 51.6649 44.4158 52.0714 43.3929 52.0714H10.6071C9.58415 52.0714 8.60309 51.6649 7.87972 50.9417C7.15639 50.2184 6.75 49.2372 6.75 48.2143V9.64285C6.75 8.61986 7.15639 7.63879 7.87972 6.91542C8.60309 6.19209 9.58415 5.78571 10.6071 5.78571H16.3929" stroke="black" stroke-linecap="round" stroke-linejoin="round"/>
<path d="M19.2857 34.7143L25.0714 38.5715L36.6428 23.1429" stroke="black" stroke-linecap="round" stroke-linejoin="round"/>
</svg>
