<svg width="54" height="54" viewBox="0 0 54 54" fill="none" xmlns="http://www.w3.org/2000/svg">
<path d="M48.762 8.74023H5.238C3.41025 8.74023 1.92857 10.2219 1.92857 12.0497V41.9502C1.92857 43.778 3.41025 45.2597 5.238 45.2597H48.762C50.5897 45.2597 52.0714 43.778 52.0714 41.9502V12.0497C52.0714 10.2219 50.5897 8.74023 48.762 8.74023Z" stroke="black" stroke-linecap="round" stroke-linejoin="round"/>
<path d="M36.1005 22.6776H43.7639" stroke="black" stroke-linecap="round" stroke-linejoin="round"/>
<path d="M36.1005 30.2728H43.7639" stroke="black" stroke-linecap="round" stroke-linejoin="round"/>
<path d="M13.5278 23.9439C13.5278 27.4392 16.3613 30.2727 19.8566 30.2727C20.7402 30.2727 21.5815 30.0916 22.3455 29.7645C24.6034 28.7977 26.1853 26.5556 26.1853 23.9439C26.1853 20.4486 23.3519 17.6151 19.8566 17.6151C16.3613 17.6151 13.5278 20.4486 13.5278 23.9439Z" stroke="black" stroke-linecap="round" stroke-linejoin="round"/>
<path d="M10.2361 36.5398C11.2418 34.627 12.6551 33.0462 14.3404 31.9492C16.0256 30.8523 17.926 30.2761 19.8589 30.2761C21.7918 30.2761 23.6922 30.8523 25.3775 31.9492C27.0627 33.0462 28.476 34.627 29.4817 36.5398" stroke="black" stroke-linecap="round" stroke-linejoin="round"/>
</svg>
