<svg width="54" height="54" viewBox="0 0 54 54" fill="none" xmlns="http://www.w3.org/2000/svg">
<path d="M23.1429 51.1071H30.8572" stroke="black" stroke-linecap="round" stroke-linejoin="round"/>
<path d="M42.4286 22.1786C42.4286 18.0866 40.8032 14.1623 37.9096 11.2689C35.0162 8.37552 31.0919 6.75 27 6.75C22.9081 6.75 18.9838 8.37552 16.0903 11.2689C13.1969 14.1623 11.5714 18.0866 11.5714 22.1786V35.6786C11.5714 37.213 10.9618 38.6848 9.87682 39.7698C8.79181 40.8549 7.32015 41.4643 5.78571 41.4643H48.2143C46.6799 41.4643 45.208 40.8549 44.123 39.7698C43.038 38.6848 42.4286 37.213 42.4286 35.6786V22.1786Z" stroke="black" stroke-linecap="round" stroke-linejoin="round"/>
<path d="M1.92859 21.6771C1.93067 18.0056 2.80622 14.3874 4.48294 11.1211C6.15964 7.85492 8.58937 5.0345 11.5714 2.89282" stroke="black" stroke-linecap="round" stroke-linejoin="round"/>
<path d="M52.0714 21.6771C52.0695 18.0056 51.1939 14.3874 49.5172 11.1211C47.8405 7.85492 45.4105 5.0345 42.4286 2.89282" stroke="black" stroke-linecap="round" stroke-linejoin="round"/>
</svg>
