<svg width="54" height="54" viewBox="0 0 54 54" fill="none" xmlns="http://www.w3.org/2000/svg">
<path d="M19.2857 25.0715C24.6113 25.0715 28.9286 20.7542 28.9286 15.4286C28.9286 10.103 24.6113 5.78577 19.2857 5.78577C13.9601 5.78577 9.64285 10.103 9.64285 15.4286C9.64285 20.7542 13.9601 25.0715 19.2857 25.0715Z" stroke="black" stroke-linecap="round" stroke-linejoin="round"/>
<path d="M1.92856 52.0715H19.2857H36.6428V49.9805C36.6121 47.0406 35.8368 44.1562 34.3892 41.5974C32.9416 39.0382 30.8691 36.8878 28.3651 35.3469C25.8612 33.806 23.0075 32.9249 20.0707 32.7859C19.8089 32.7735 19.5471 32.767 19.2857 32.7665C19.0243 32.767 18.7625 32.7735 18.5007 32.7859C15.5639 32.9249 12.7102 33.806 10.2063 35.3469C7.70232 36.8878 5.62976 39.0382 4.18217 41.5974C2.73461 44.1562 1.95927 47.0406 1.92856 49.9805V52.0715Z" stroke="black" stroke-linecap="round" stroke-linejoin="round"/>
<path d="M34.7143 25.0715C40.0398 25.0715 44.3571 20.7542 44.3571 15.4286C44.3571 10.103 40.0398 5.78577 34.7143 5.78577" stroke="black" stroke-linecap="round" stroke-linejoin="round"/>
<path d="M44.3571 52.0719H52.0714V49.9805C52.0406 47.0406 51.2653 44.1562 49.8177 41.5974C48.3701 39.0382 46.2977 36.8879 43.7936 35.347C42.1751 34.3509 40.4101 33.6306 38.5714 33.2081" stroke="black" stroke-linecap="round" stroke-linejoin="round"/>
</svg>
