<svg width="54" height="54" viewBox="0 0 54 54" fill="none" xmlns="http://www.w3.org/2000/svg">
<path d="M46.2857 36.6429C48.416 36.6429 50.1429 38.3699 50.1429 40.5001V46.2858C50.1429 48.4161 48.416 50.1429 46.2857 50.1429H7.71429C5.58402 50.1429 3.85714 48.4161 3.85714 46.2858V40.5001C3.85714 38.3698 5.58406 36.6429 7.71429 36.6429H46.2857Z" stroke="black" stroke-linecap="round" stroke-linejoin="round"/>
<path d="M27 3.85718C29.1302 3.85718 30.8571 5.5841 30.8571 7.71432V25.0715C30.8571 27.2017 29.1302 28.9286 27 28.9286H7.4505C5.32027 28.9286 3.59336 27.2017 3.59336 25.0715L3.59336 7.71432C3.59336 5.58406 5.32027 3.85718 7.4505 3.85718H27Z" stroke="black" stroke-linecap="round" stroke-linejoin="round"/>
<path d="M48.0936 3.85718C49.1589 3.85718 50.0221 4.72064 50.0221 5.78575V10.6072C50.0221 11.6723 49.1589 12.5357 48.0936 12.5357H40.5C39.435 12.5357 38.5714 11.6723 38.5714 10.6072V5.78575C38.5714 4.72064 39.435 3.85718 40.5 3.85718H48.0936Z" stroke="black" stroke-linecap="round" stroke-linejoin="round"/>
<path d="M48.0936 20.25C49.1589 20.25 50.0221 21.1135 50.0221 22.1786V27C50.0221 28.0651 49.1589 28.9286 48.0936 28.9286H40.5C39.435 28.9286 38.5714 28.0651 38.5714 27V22.1786C38.5714 21.1135 39.435 20.25 40.5 20.25H48.0936Z" stroke="black" stroke-linecap="round" stroke-linejoin="round"/>
</svg>
