<svg width="52" height="52" viewBox="0 0 52 52" fill="none" xmlns="http://www.w3.org/2000/svg">
<path d="M14.4286 43.3572H4.78573C3.76274 43.3572 2.78168 42.9506 2.05832 42.2274C1.33497 41.5042 0.928589 40.5229 0.928589 39.5V4.78573C0.928589 3.76274 1.33497 2.78168 2.05832 2.05832C2.78168 1.33497 3.76274 0.928589 4.78573 0.928589H27.9286L39.5 12.5V16.3572" stroke="black" stroke-linecap="round" stroke-linejoin="round"/>
<path d="M50.7629 47.639C50.9522 47.9885 51.051 48.3796 51.051 48.7769C51.051 49.1745 50.9522 49.5653 50.7629 49.9147C50.5854 50.2634 50.3147 50.5558 49.981 50.7598C49.6478 50.9642 49.264 51.0722 48.8729 51.0719H26.2316C25.8405 51.0722 25.457 50.9642 25.1235 50.7598C24.7899 50.5558 24.5194 50.2634 24.3416 49.9147C24.1525 49.5653 24.0535 49.1745 24.0535 48.7769C24.0535 48.3796 24.1525 47.9885 24.3416 47.639L35.7201 27.1192C35.8765 26.7359 36.1434 26.408 36.4869 26.1772C36.8304 25.9463 37.2349 25.823 37.6486 25.823C38.0624 25.823 38.4671 25.9463 38.8107 26.1772C39.154 26.408 39.4209 26.7359 39.5771 27.1192L50.7629 47.639Z" stroke="black" stroke-linecap="round" stroke-linejoin="round"/>
<path d="M37.5715 39.5V35.6429" stroke="black" stroke-linecap="round" stroke-linejoin="round"/>
<path d="M37.5525 45.7686C37.286 45.7686 37.07 45.5526 37.07 45.2861C37.07 45.0196 37.286 44.8036 37.5525 44.8036" stroke="black" stroke-linecap="round" stroke-linejoin="round"/>
<path d="M37.5516 45.7686C37.8183 45.7686 38.0343 45.5526 38.0343 45.2861C38.0343 45.0196 37.8183 44.8036 37.5516 44.8036" stroke="black" stroke-linecap="round" stroke-linejoin="round"/>
</svg>
